<svg width="914" height="400" fill="none" xmlns="http://www.w3.org/2000/svg"><path fill="#fff" d="M0 0h914v400H0z"/><path d="M417.126 199.424c-.616-.448-1.372-.896-2.52-.896-1.036 0-1.652.364-1.652 1.064 0 2.072 6.888 1.12 6.888 5.74 0 2.632-2.24 3.976-5.124 3.976-2.408 0-4.256-1.092-4.956-1.96-.224-.28-.336-.532-.336-.868 0-.728.616-1.344 1.344-1.344.28 0 .56.084.868.336.756.616 1.68 1.148 3.08 1.148 1.26 0 2.072-.336 2.072-1.12 0-2.268-6.86-1.092-6.86-5.852 0-2.52 2.1-3.752 4.676-3.752 1.988 0 3.752.756 4.536 1.736.168.224.28.42.28.84 0 .728-.616 1.344-1.344 1.344-.392 0-.644-.168-.952-.392ZM427.197 209h-4.368c-.7 0-1.26-.532-1.26-1.26 0-.7.56-1.26 1.26-1.26h.672v-7.672h-.672c-.7 0-1.26-.532-1.26-1.26 0-.7.56-1.26 1.26-1.26h2.268c.896 0 1.428.644 1.428 1.512v8.68h.672c.7 0 1.26.56 1.26 1.26s-.56 1.26-1.26 1.26Zm-.448-16.212c0 1.092-.644 1.764-1.82 1.764-1.148 0-1.792-.672-1.792-1.764 0-1.288.644-1.848 1.792-1.848 1.176 0 1.82.56 1.82 1.848Zm15.536 9.856c0 4.564-2.352 6.72-6.132 6.72s-6.132-2.156-6.132-6.72c0-4.592 2.352-6.748 6.132-6.748s6.132 2.156 6.132 6.748Zm-6.132 4.144c2.016 0 3.08-1.4 3.08-4.144 0-2.772-1.064-4.172-3.08-4.172s-3.08 1.4-3.08 4.172c0 2.744 1.064 4.144 3.08 4.144Z" fill="#6100DC"/><path d="M450.316 209.364c-3.78 0-6.076-2.184-6.076-6.748s2.296-6.72 6.076-6.72c2.576 0 4.088 1.288 4.564 1.932.224.308.308.532.308.868 0 .756-.588 1.344-1.344 1.344-.448 0-.784-.224-1.036-.476-.364-.364-1.092-1.092-2.492-1.092-1.96 0-3.024 1.512-3.024 4.144 0 2.688 1.064 4.172 3.024 4.172 1.288 0 2.128-.644 2.772-1.12.308-.224.588-.28.84-.28.756 0 1.344.588 1.344 1.344 0 .364-.14.728-.476 1.036-.644.588-2.184 1.596-4.48 1.596Zm12.099-.364h-4.368c-.7 0-1.26-.532-1.26-1.26 0-.7.56-1.26 1.26-1.26h.672v-7.672h-.672c-.7 0-1.26-.532-1.26-1.26 0-.7.56-1.26 1.26-1.26h2.296c.756 0 1.4.504 1.4 1.288v.14c.532-1.092 1.848-1.792 3.024-1.792.784 0 1.428.644 1.428 1.428 0 .784-.644 1.428-1.428 1.428-1.932 0-3.024 1.232-3.024 3.108v4.592h.672c.7 0 1.26.56 1.26 1.26s-.56 1.26-1.26 1.26Zm17.334-10.192h-.308l-4.928 11.116c-1.204 2.744-2.996 4.704-5.796 4.704-.812 0-1.456-.588-1.456-1.4 0-.812.644-1.4 1.456-1.4 1.792 0 2.632-1.428 3.556-3.724l-4.032-9.296h-.308c-.7 0-1.26-.532-1.26-1.26 0-.7.56-1.26 1.26-1.26h3.808c.7 0 1.26.56 1.26 1.26s-.56 1.26-1.26 1.26h-.28l2.38 5.992 2.352-5.992h-.252c-.7 0-1.26-.532-1.26-1.26 0-.7.56-1.26 1.26-1.26h3.808c.7 0 1.26.56 1.26 1.26s-.56 1.26-1.26 1.26Zm3.312-2.52h2.184c.84 0 1.512.448 1.512 1.288.42-.7 1.736-1.68 3.304-1.68 3.668 0 5.684 2.156 5.684 6.72s-2.044 6.748-5.684 6.748c-1.4 0-2.632-.448-3.304-1.204v3.948h1.12c.7 0 1.26.56 1.26 1.26s-.56 1.26-1.26 1.26h-4.816c-.7 0-1.26-.56-1.26-1.26s.56-1.26 1.26-1.26h.672v-13.3h-.672c-.7 0-1.26-.56-1.26-1.26s.56-1.26 1.26-1.26Zm6.608 10.5c1.96 0 2.996-1.4 2.996-4.144 0-2.772-1.036-4.172-2.996-4.172s-2.996 1.4-2.996 4.172c0 2.744 1.036 4.144 2.996 4.144Zm9.428-10.5v-2.352c0-.812.672-1.484 1.484-1.484.812 0 1.484.672 1.484 1.484v2.352h1.26c.7 0 1.26.56 1.26 1.26s-.56 1.26-1.26 1.26h-1.26v6.776c0 .644.672 1.008 1.288 1.008.728 0 1.316.588 1.316 1.316 0 .728-.588 1.316-1.316 1.316-2.632 0-4.256-1.596-4.256-3.808v-6.608h-.644c-.7 0-1.26-.56-1.26-1.26s.56-1.26 1.26-1.26h.644Z" fill="#333"/></svg>