<svg width="914" height="400" fill="none" xmlns="http://www.w3.org/2000/svg"><path fill="#fff" d="M0 0h914v400H0z"/><path d="M417.193 197.78c-1.11 0-1.77.39-1.77 1.14 0 2.22 7.38 1.2 7.38 6.15 0 2.82-2.4 4.26-5.49 4.26-2.58 0-4.56-1.17-5.31-2.1-.24-.3-.36-.57-.36-.93 0-.78.66-1.44 1.44-1.44.3 0 .6.09.93.36.81.66 1.8 1.23 3.3 1.23 1.35 0 2.22-.36 2.22-1.2 0-2.43-7.35-1.17-7.35-6.27 0-2.7 2.25-4.02 5.01-4.02 2.13 0 4.02.81 4.86 1.86.18.24.3.45.3.9 0 .78-.66 1.44-1.44 1.44-.42 0-.69-.18-1.02-.42-.66-.48-1.47-.96-2.7-.96Zm10.704-1.02v10.86c0 .9-.72 1.62-1.62 1.62-.9 0-1.62-.72-1.62-1.62v-10.86c0-.9.72-1.62 1.62-1.62.9 0 1.62.72 1.62 1.62Zm-1.62-3.24c-1.23 0-1.92-.72-1.92-1.89 0-1.38.69-1.98 1.92-1.98 1.26 0 1.95.6 1.95 1.98 0 1.17-.69 1.89-1.95 1.89Zm16.527 8.67c0 4.89-2.52 7.2-6.57 7.2-4.05 0-6.57-2.31-6.57-7.2 0-4.92 2.52-7.23 6.57-7.23 4.05 0 6.57 2.31 6.57 7.23Zm-3.27 0c0-2.97-1.14-4.47-3.3-4.47s-3.3 1.5-3.3 4.47c0 2.94 1.14 4.44 3.3 4.44s3.3-1.5 3.3-4.44Zm4.412-.03c0-4.89 2.43-7.2 6.51-7.2 2.76 0 4.35 1.38 4.89 2.07.24.33.33.57.33.93 0 .81-.63 1.44-1.44 1.44-.48 0-.84-.21-1.11-.51-.39-.42-1.17-1.17-2.67-1.17-2.1 0-3.24 1.62-3.24 4.44 0 2.88 1.14 4.47 3.24 4.47 1.38 0 2.28-.69 2.97-1.2.33-.24.6-.3.9-.3.81 0 1.44.63 1.44 1.44 0 .42-.15.78-.51 1.11-.69.63-2.34 1.71-4.8 1.71-4.08 0-6.51-2.34-6.51-7.23Zm16.806-5.4v.15c.57-1.17 1.98-1.92 3.24-1.92.84 0 1.53.69 1.53 1.53 0 .84-.69 1.53-1.53 1.53-2.07 0-3.24 1.32-3.24 3.33v6.24c0 .9-.72 1.62-1.62 1.62-.9 0-1.62-.72-1.62-1.62v-10.86c0-.9.72-1.62 1.62-1.62.9 0 1.62.72 1.62 1.62Zm6.731 15.27c1.92 0 2.82-1.53 3.81-3.99l-4.62-10.65c-.06-.15-.12-.36-.12-.63 0-.9.72-1.62 1.62-1.62.9 0 1.35.63 1.5 1.02l3.3 8.34 3.3-8.34c.15-.39.6-1.02 1.5-1.02s1.62.72 1.62 1.62c0 .27-.06.48-.12.63l-5.58 12.6c-1.32 2.94-3.21 5.04-6.21 5.04-.87 0-1.56-.63-1.56-1.5s.69-1.5 1.56-1.5Zm16.564-15.27c.45-.75 1.86-1.8 3.54-1.8 3.93 0 6.09 2.31 6.09 7.2 0 4.89-2.19 7.23-6.09 7.23-1.5 0-2.82-.48-3.54-1.29v5.31c0 .9-.72 1.62-1.62 1.62-.9 0-1.62-.72-1.62-1.62v-16.65c0-.9.72-1.62 1.62-1.62.9 0 1.62.72 1.62 1.62Zm6.33 5.43c0-2.97-1.11-4.47-3.21-4.47-2.1 0-3.21 1.5-3.21 4.47 0 2.94 1.11 4.44 3.21 4.44 2.1 0 3.21-1.5 3.21-4.44Zm6.14-6.81v-2.52c0-.87.72-1.59 1.59-1.59.87 0 1.59.72 1.59 1.59v2.52h1.35c.75 0 1.35.6 1.35 1.35 0 .75-.6 1.35-1.35 1.35h-1.35v7.26c0 .69.6 1.08 1.14 1.08.78 0 1.41.63 1.41 1.41 0 .78-.63 1.41-1.41 1.41-2.67 0-4.32-1.71-4.32-4.08v-7.08h-.69c-.75 0-1.35-.6-1.35-1.35 0-.75.6-1.35 1.35-1.35h.69Z" fill="#87D787"/></svg>